<mxfile host="app.diagrams.net" agent="Mozilla/5.0 (Macintosh; Intel Mac OS X 10_15_7) AppleWebKit/537.36 (KHTML, like Gecko) Chrome/129.0.0.0 Safari/537.36" version="24.7.17">
  <diagram name="Page-1" id="rGJo0WMhNNA5gN-cipGS">
    <mxGraphModel dx="1430" dy="773" grid="1" gridSize="10" guides="1" tooltips="1" connect="1" arrows="1" fold="1" page="1" pageScale="1" pageWidth="827" pageHeight="1169" math="0" shadow="0">
      <root>
        <mxCell id="0" />
        <mxCell id="1" parent="0" />
        <mxCell id="mpgL-DApy9O3jro9v3ed-5" style="edgeStyle=orthogonalEdgeStyle;rounded=0;orthogonalLoop=1;jettySize=auto;html=1;entryX=1;entryY=0.5;entryDx=0;entryDy=0;" edge="1" parent="1" source="mpgL-DApy9O3jro9v3ed-2" target="mpgL-DApy9O3jro9v3ed-32">
          <mxGeometry relative="1" as="geometry">
            <mxPoint x="370" y="740" as="targetPoint" />
            <Array as="points">
              <mxPoint x="790" y="140" />
              <mxPoint x="790" y="650" />
            </Array>
          </mxGeometry>
        </mxCell>
        <mxCell id="mpgL-DApy9O3jro9v3ed-6" value="是" style="edgeLabel;html=1;align=center;verticalAlign=middle;resizable=0;points=[];" vertex="1" connectable="0" parent="mpgL-DApy9O3jro9v3ed-5">
          <mxGeometry x="-0.6534" relative="1" as="geometry">
            <mxPoint y="-10" as="offset" />
          </mxGeometry>
        </mxCell>
        <mxCell id="mpgL-DApy9O3jro9v3ed-8" style="edgeStyle=orthogonalEdgeStyle;rounded=0;orthogonalLoop=1;jettySize=auto;html=1;entryX=0.5;entryY=0;entryDx=0;entryDy=0;" edge="1" parent="1" source="mpgL-DApy9O3jro9v3ed-2" target="mpgL-DApy9O3jro9v3ed-7">
          <mxGeometry relative="1" as="geometry" />
        </mxCell>
        <mxCell id="mpgL-DApy9O3jro9v3ed-12" value="否" style="edgeLabel;html=1;align=center;verticalAlign=middle;resizable=0;points=[];" vertex="1" connectable="0" parent="mpgL-DApy9O3jro9v3ed-8">
          <mxGeometry x="-0.2879" relative="1" as="geometry">
            <mxPoint x="-15" as="offset" />
          </mxGeometry>
        </mxCell>
        <mxCell id="mpgL-DApy9O3jro9v3ed-2" value="排名竞价开启" style="rhombus;whiteSpace=wrap;html=1;" vertex="1" parent="1">
          <mxGeometry x="400" y="100" width="80" height="80" as="geometry" />
        </mxCell>
        <mxCell id="mpgL-DApy9O3jro9v3ed-10" style="edgeStyle=orthogonalEdgeStyle;rounded=0;orthogonalLoop=1;jettySize=auto;html=1;exitX=1;exitY=0.5;exitDx=0;exitDy=0;entryX=0;entryY=0.5;entryDx=0;entryDy=0;" edge="1" parent="1" source="mpgL-DApy9O3jro9v3ed-7" target="mpgL-DApy9O3jro9v3ed-9">
          <mxGeometry relative="1" as="geometry" />
        </mxCell>
        <mxCell id="mpgL-DApy9O3jro9v3ed-11" value="有" style="edgeLabel;html=1;align=center;verticalAlign=middle;resizable=0;points=[];" vertex="1" connectable="0" parent="mpgL-DApy9O3jro9v3ed-10">
          <mxGeometry x="-0.1728" y="1" relative="1" as="geometry">
            <mxPoint y="-9" as="offset" />
          </mxGeometry>
        </mxCell>
        <mxCell id="mpgL-DApy9O3jro9v3ed-44" style="edgeStyle=orthogonalEdgeStyle;rounded=0;orthogonalLoop=1;jettySize=auto;html=1;entryX=1;entryY=0.5;entryDx=0;entryDy=0;" edge="1" parent="1" source="mpgL-DApy9O3jro9v3ed-7" target="mpgL-DApy9O3jro9v3ed-36">
          <mxGeometry relative="1" as="geometry" />
        </mxCell>
        <mxCell id="mpgL-DApy9O3jro9v3ed-46" value="否" style="edgeLabel;html=1;align=center;verticalAlign=middle;resizable=0;points=[];" vertex="1" connectable="0" parent="mpgL-DApy9O3jro9v3ed-44">
          <mxGeometry x="-0.0306" y="-2" relative="1" as="geometry">
            <mxPoint y="-8" as="offset" />
          </mxGeometry>
        </mxCell>
        <mxCell id="mpgL-DApy9O3jro9v3ed-7" value="目标排名设置" style="rhombus;whiteSpace=wrap;html=1;" vertex="1" parent="1">
          <mxGeometry x="402.5" y="220" width="75" height="80" as="geometry" />
        </mxCell>
        <mxCell id="mpgL-DApy9O3jro9v3ed-14" style="edgeStyle=orthogonalEdgeStyle;rounded=0;orthogonalLoop=1;jettySize=auto;html=1;entryX=0;entryY=0.5;entryDx=0;entryDy=0;" edge="1" parent="1" source="mpgL-DApy9O3jro9v3ed-9" target="mpgL-DApy9O3jro9v3ed-69">
          <mxGeometry relative="1" as="geometry">
            <mxPoint x="635" y="260" as="targetPoint" />
          </mxGeometry>
        </mxCell>
        <mxCell id="mpgL-DApy9O3jro9v3ed-15" value="是" style="edgeLabel;html=1;align=center;verticalAlign=middle;resizable=0;points=[];" vertex="1" connectable="0" parent="mpgL-DApy9O3jro9v3ed-14">
          <mxGeometry x="-0.2269" y="1" relative="1" as="geometry">
            <mxPoint x="3" y="-9" as="offset" />
          </mxGeometry>
        </mxCell>
        <mxCell id="mpgL-DApy9O3jro9v3ed-21" style="edgeStyle=orthogonalEdgeStyle;rounded=0;orthogonalLoop=1;jettySize=auto;html=1;entryX=0.5;entryY=0;entryDx=0;entryDy=0;" edge="1" parent="1" source="mpgL-DApy9O3jro9v3ed-9" target="mpgL-DApy9O3jro9v3ed-67">
          <mxGeometry relative="1" as="geometry">
            <mxPoint x="570" y="350" as="targetPoint" />
          </mxGeometry>
        </mxCell>
        <mxCell id="mpgL-DApy9O3jro9v3ed-61" value="否" style="edgeLabel;html=1;align=center;verticalAlign=middle;resizable=0;points=[];" vertex="1" connectable="0" parent="mpgL-DApy9O3jro9v3ed-21">
          <mxGeometry x="-0.3752" y="1" relative="1" as="geometry">
            <mxPoint x="9" y="4" as="offset" />
          </mxGeometry>
        </mxCell>
        <mxCell id="mpgL-DApy9O3jro9v3ed-9" value="达到目标排名否" style="rhombus;whiteSpace=wrap;html=1;" vertex="1" parent="1">
          <mxGeometry x="530" y="220" width="80" height="80" as="geometry" />
        </mxCell>
        <mxCell id="mpgL-DApy9O3jro9v3ed-32" value="结束" style="rounded=1;whiteSpace=wrap;html=1;fillColor=#fff2cc;strokeColor=#d6b656;" vertex="1" parent="1">
          <mxGeometry x="380" y="620" width="120" height="60" as="geometry" />
        </mxCell>
        <mxCell id="mpgL-DApy9O3jro9v3ed-51" style="edgeStyle=orthogonalEdgeStyle;rounded=0;orthogonalLoop=1;jettySize=auto;html=1;entryX=0.5;entryY=0;entryDx=0;entryDy=0;" edge="1" parent="1" source="mpgL-DApy9O3jro9v3ed-33" target="mpgL-DApy9O3jro9v3ed-50">
          <mxGeometry relative="1" as="geometry" />
        </mxCell>
        <mxCell id="mpgL-DApy9O3jro9v3ed-52" value="有" style="edgeLabel;html=1;align=center;verticalAlign=middle;resizable=0;points=[];" vertex="1" connectable="0" parent="mpgL-DApy9O3jro9v3ed-51">
          <mxGeometry x="-0.0621" y="1" relative="1" as="geometry">
            <mxPoint x="9" as="offset" />
          </mxGeometry>
        </mxCell>
        <mxCell id="mpgL-DApy9O3jro9v3ed-64" value="否" style="edgeStyle=orthogonalEdgeStyle;rounded=0;orthogonalLoop=1;jettySize=auto;html=1;entryX=0;entryY=0.5;entryDx=0;entryDy=0;" edge="1" parent="1" source="mpgL-DApy9O3jro9v3ed-33" target="mpgL-DApy9O3jro9v3ed-65">
          <mxGeometry x="-0.0245" y="-10" relative="1" as="geometry">
            <mxPoint x="80" y="550" as="targetPoint" />
            <Array as="points">
              <mxPoint x="60" y="260" />
              <mxPoint x="60" y="555" />
            </Array>
            <mxPoint as="offset" />
          </mxGeometry>
        </mxCell>
        <mxCell id="mpgL-DApy9O3jro9v3ed-33" value="同名关键词商品是否有目标排名设置" style="rhombus;whiteSpace=wrap;html=1;" vertex="1" parent="1">
          <mxGeometry x="110" y="215" width="80" height="90" as="geometry" />
        </mxCell>
        <mxCell id="mpgL-DApy9O3jro9v3ed-45" style="edgeStyle=orthogonalEdgeStyle;rounded=0;orthogonalLoop=1;jettySize=auto;html=1;entryX=0.5;entryY=0;entryDx=0;entryDy=0;" edge="1" parent="1" source="mpgL-DApy9O3jro9v3ed-36" target="mpgL-DApy9O3jro9v3ed-71">
          <mxGeometry relative="1" as="geometry">
            <mxPoint x="320" y="380" as="targetPoint" />
          </mxGeometry>
        </mxCell>
        <mxCell id="mpgL-DApy9O3jro9v3ed-47" value="是" style="edgeLabel;html=1;align=center;verticalAlign=middle;resizable=0;points=[];" vertex="1" connectable="0" parent="mpgL-DApy9O3jro9v3ed-45">
          <mxGeometry x="-0.2864" relative="1" as="geometry">
            <mxPoint x="10" as="offset" />
          </mxGeometry>
        </mxCell>
        <mxCell id="mpgL-DApy9O3jro9v3ed-48" style="edgeStyle=orthogonalEdgeStyle;rounded=0;orthogonalLoop=1;jettySize=auto;html=1;entryX=1;entryY=0.5;entryDx=0;entryDy=0;" edge="1" parent="1" source="mpgL-DApy9O3jro9v3ed-36" target="mpgL-DApy9O3jro9v3ed-33">
          <mxGeometry relative="1" as="geometry" />
        </mxCell>
        <mxCell id="mpgL-DApy9O3jro9v3ed-49" value="否" style="edgeLabel;html=1;align=center;verticalAlign=middle;resizable=0;points=[];" vertex="1" connectable="0" parent="mpgL-DApy9O3jro9v3ed-48">
          <mxGeometry x="0.5994" y="-2" relative="1" as="geometry">
            <mxPoint x="26" y="-8" as="offset" />
          </mxGeometry>
        </mxCell>
        <mxCell id="mpgL-DApy9O3jro9v3ed-36" value="cpc竞价排名是否第1" style="rhombus;whiteSpace=wrap;html=1;" vertex="1" parent="1">
          <mxGeometry x="280" y="220" width="80" height="80" as="geometry" />
        </mxCell>
        <mxCell id="mpgL-DApy9O3jro9v3ed-53" style="edgeStyle=orthogonalEdgeStyle;rounded=0;orthogonalLoop=1;jettySize=auto;html=1;entryX=0;entryY=0.5;entryDx=0;entryDy=0;" edge="1" parent="1" source="mpgL-DApy9O3jro9v3ed-50" target="mpgL-DApy9O3jro9v3ed-71">
          <mxGeometry relative="1" as="geometry">
            <mxPoint x="240" y="440" as="targetPoint" />
          </mxGeometry>
        </mxCell>
        <mxCell id="mpgL-DApy9O3jro9v3ed-54" value="是" style="edgeLabel;html=1;align=center;verticalAlign=middle;resizable=0;points=[];" vertex="1" connectable="0" parent="mpgL-DApy9O3jro9v3ed-53">
          <mxGeometry x="-0.1743" y="1" relative="1" as="geometry">
            <mxPoint x="9" y="-9" as="offset" />
          </mxGeometry>
        </mxCell>
        <mxCell id="mpgL-DApy9O3jro9v3ed-56" style="edgeStyle=orthogonalEdgeStyle;rounded=0;orthogonalLoop=1;jettySize=auto;html=1;entryX=0.5;entryY=0;entryDx=0;entryDy=0;" edge="1" parent="1" source="mpgL-DApy9O3jro9v3ed-50" target="mpgL-DApy9O3jro9v3ed-65">
          <mxGeometry relative="1" as="geometry">
            <mxPoint x="150" y="540" as="targetPoint" />
          </mxGeometry>
        </mxCell>
        <mxCell id="mpgL-DApy9O3jro9v3ed-58" value="否" style="edgeLabel;html=1;align=center;verticalAlign=middle;resizable=0;points=[];" vertex="1" connectable="0" parent="mpgL-DApy9O3jro9v3ed-56">
          <mxGeometry x="-0.3529" relative="1" as="geometry">
            <mxPoint x="10" y="1" as="offset" />
          </mxGeometry>
        </mxCell>
        <mxCell id="mpgL-DApy9O3jro9v3ed-50" value="竞价排名是否比其他同名&lt;div&gt;关键词商品排名高&lt;/div&gt;" style="rhombus;whiteSpace=wrap;html=1;" vertex="1" parent="1">
          <mxGeometry x="110" y="400" width="80" height="80" as="geometry" />
        </mxCell>
        <mxCell id="mpgL-DApy9O3jro9v3ed-66" style="edgeStyle=orthogonalEdgeStyle;rounded=0;orthogonalLoop=1;jettySize=auto;html=1;entryX=0;entryY=0.5;entryDx=0;entryDy=0;" edge="1" parent="1" source="mpgL-DApy9O3jro9v3ed-65" target="mpgL-DApy9O3jro9v3ed-32">
          <mxGeometry relative="1" as="geometry">
            <Array as="points">
              <mxPoint x="150" y="650" />
            </Array>
          </mxGeometry>
        </mxCell>
        <mxCell id="mpgL-DApy9O3jro9v3ed-65" value="cpc增加逻辑" style="shape=process;whiteSpace=wrap;html=1;backgroundOutline=1;fillColor=#d5e8d4;strokeColor=#82b366;" vertex="1" parent="1">
          <mxGeometry x="90" y="525" width="120" height="60" as="geometry" />
        </mxCell>
        <mxCell id="mpgL-DApy9O3jro9v3ed-68" style="edgeStyle=orthogonalEdgeStyle;rounded=0;orthogonalLoop=1;jettySize=auto;html=1;entryX=1;entryY=0.5;entryDx=0;entryDy=0;" edge="1" parent="1" source="mpgL-DApy9O3jro9v3ed-67" target="mpgL-DApy9O3jro9v3ed-32">
          <mxGeometry relative="1" as="geometry">
            <Array as="points">
              <mxPoint x="570" y="650" />
            </Array>
          </mxGeometry>
        </mxCell>
        <mxCell id="mpgL-DApy9O3jro9v3ed-67" value="cpc增加逻辑" style="shape=process;whiteSpace=wrap;html=1;backgroundOutline=1;fillColor=#d5e8d4;strokeColor=#82b366;" vertex="1" parent="1">
          <mxGeometry x="510" y="410" width="120" height="60" as="geometry" />
        </mxCell>
        <mxCell id="mpgL-DApy9O3jro9v3ed-70" style="edgeStyle=orthogonalEdgeStyle;rounded=0;orthogonalLoop=1;jettySize=auto;html=1;entryX=1;entryY=0.5;entryDx=0;entryDy=0;" edge="1" parent="1" source="mpgL-DApy9O3jro9v3ed-69" target="mpgL-DApy9O3jro9v3ed-32">
          <mxGeometry relative="1" as="geometry">
            <Array as="points">
              <mxPoint x="790" y="260" />
              <mxPoint x="790" y="650" />
            </Array>
          </mxGeometry>
        </mxCell>
        <mxCell id="mpgL-DApy9O3jro9v3ed-69" value="cpc减少逻辑" style="shape=process;whiteSpace=wrap;html=1;backgroundOutline=1;fillColor=#dae8fc;strokeColor=#6c8ebf;" vertex="1" parent="1">
          <mxGeometry x="650" y="230" width="120" height="60" as="geometry" />
        </mxCell>
        <mxCell id="mpgL-DApy9O3jro9v3ed-72" style="edgeStyle=orthogonalEdgeStyle;rounded=0;orthogonalLoop=1;jettySize=auto;html=1;entryX=0.5;entryY=0;entryDx=0;entryDy=0;" edge="1" parent="1" source="mpgL-DApy9O3jro9v3ed-71" target="mpgL-DApy9O3jro9v3ed-32">
          <mxGeometry relative="1" as="geometry" />
        </mxCell>
        <mxCell id="mpgL-DApy9O3jro9v3ed-71" value="cpc减少逻辑" style="shape=process;whiteSpace=wrap;html=1;backgroundOutline=1;fillColor=#dae8fc;strokeColor=#6c8ebf;" vertex="1" parent="1">
          <mxGeometry x="260" y="410" width="120" height="60" as="geometry" />
        </mxCell>
        <mxCell id="mpgL-DApy9O3jro9v3ed-74" style="edgeStyle=orthogonalEdgeStyle;rounded=0;orthogonalLoop=1;jettySize=auto;html=1;entryX=0.5;entryY=0;entryDx=0;entryDy=0;" edge="1" parent="1" source="mpgL-DApy9O3jro9v3ed-73" target="mpgL-DApy9O3jro9v3ed-2">
          <mxGeometry relative="1" as="geometry" />
        </mxCell>
        <mxCell id="mpgL-DApy9O3jro9v3ed-73" value="关键词cpc逻辑开始" style="rounded=1;whiteSpace=wrap;html=1;fillColor=#fff2cc;strokeColor=#d6b656;" vertex="1" parent="1">
          <mxGeometry x="380" y="20" width="120" height="60" as="geometry" />
        </mxCell>
        <mxCell id="mpgL-DApy9O3jro9v3ed-77" style="edgeStyle=orthogonalEdgeStyle;rounded=0;orthogonalLoop=1;jettySize=auto;html=1;entryX=0.5;entryY=0;entryDx=0;entryDy=0;" edge="1" parent="1" source="mpgL-DApy9O3jro9v3ed-75" target="mpgL-DApy9O3jro9v3ed-76">
          <mxGeometry relative="1" as="geometry" />
        </mxCell>
        <mxCell id="mpgL-DApy9O3jro9v3ed-75" value="cpc增加逻辑" style="rounded=1;whiteSpace=wrap;html=1;fillColor=#fff2cc;strokeColor=#d6b656;" vertex="1" parent="1">
          <mxGeometry x="140" y="790" width="120" height="60" as="geometry" />
        </mxCell>
        <mxCell id="mpgL-DApy9O3jro9v3ed-79" style="edgeStyle=orthogonalEdgeStyle;rounded=0;orthogonalLoop=1;jettySize=auto;html=1;entryX=0;entryY=0.5;entryDx=0;entryDy=0;" edge="1" parent="1" source="mpgL-DApy9O3jro9v3ed-76" target="mpgL-DApy9O3jro9v3ed-78">
          <mxGeometry relative="1" as="geometry">
            <mxPoint x="220" y="1120" as="targetPoint" />
            <Array as="points">
              <mxPoint x="80" y="930" />
              <mxPoint x="80" y="1120" />
            </Array>
          </mxGeometry>
        </mxCell>
        <mxCell id="mpgL-DApy9O3jro9v3ed-80" value="是" style="edgeLabel;html=1;align=center;verticalAlign=middle;resizable=0;points=[];" vertex="1" connectable="0" parent="mpgL-DApy9O3jro9v3ed-79">
          <mxGeometry x="0.1971" y="2" relative="1" as="geometry">
            <mxPoint x="38" y="-193" as="offset" />
          </mxGeometry>
        </mxCell>
        <mxCell id="mpgL-DApy9O3jro9v3ed-83" style="edgeStyle=orthogonalEdgeStyle;rounded=0;orthogonalLoop=1;jettySize=auto;html=1;entryX=0;entryY=0.5;entryDx=0;entryDy=0;" edge="1" parent="1" source="mpgL-DApy9O3jro9v3ed-76" target="mpgL-DApy9O3jro9v3ed-82">
          <mxGeometry relative="1" as="geometry" />
        </mxCell>
        <mxCell id="mpgL-DApy9O3jro9v3ed-87" value="否" style="edgeLabel;html=1;align=center;verticalAlign=middle;resizable=0;points=[];" vertex="1" connectable="0" parent="mpgL-DApy9O3jro9v3ed-83">
          <mxGeometry x="-0.2611" relative="1" as="geometry">
            <mxPoint x="4" y="-10" as="offset" />
          </mxGeometry>
        </mxCell>
        <mxCell id="mpgL-DApy9O3jro9v3ed-76" value="是否大于或等于最大设置值" style="rhombus;whiteSpace=wrap;html=1;" vertex="1" parent="1">
          <mxGeometry x="160" y="890" width="80" height="80" as="geometry" />
        </mxCell>
        <mxCell id="mpgL-DApy9O3jro9v3ed-78" value="结束" style="rounded=1;whiteSpace=wrap;html=1;fillColor=#fff2cc;strokeColor=#d6b656;" vertex="1" parent="1">
          <mxGeometry x="250" y="1090" width="120" height="60" as="geometry" />
        </mxCell>
        <mxCell id="mpgL-DApy9O3jro9v3ed-85" style="edgeStyle=orthogonalEdgeStyle;rounded=0;orthogonalLoop=1;jettySize=auto;html=1;entryX=0;entryY=0.5;entryDx=0;entryDy=0;" edge="1" parent="1" source="mpgL-DApy9O3jro9v3ed-82" target="mpgL-DApy9O3jro9v3ed-84">
          <mxGeometry relative="1" as="geometry" />
        </mxCell>
        <mxCell id="mpgL-DApy9O3jro9v3ed-82" value="cpc增加指定值" style="rounded=0;whiteSpace=wrap;html=1;" vertex="1" parent="1">
          <mxGeometry x="310" y="900" width="120" height="60" as="geometry" />
        </mxCell>
        <mxCell id="mpgL-DApy9O3jro9v3ed-86" style="edgeStyle=orthogonalEdgeStyle;rounded=0;orthogonalLoop=1;jettySize=auto;html=1;" edge="1" parent="1" source="mpgL-DApy9O3jro9v3ed-84">
          <mxGeometry relative="1" as="geometry">
            <mxPoint x="370" y="1120" as="targetPoint" />
            <Array as="points">
              <mxPoint x="530" y="1120" />
            </Array>
          </mxGeometry>
        </mxCell>
        <mxCell id="mpgL-DApy9O3jro9v3ed-89" value="否" style="edgeLabel;html=1;align=center;verticalAlign=middle;resizable=0;points=[];" vertex="1" connectable="0" parent="mpgL-DApy9O3jro9v3ed-86">
          <mxGeometry x="-0.7368" relative="1" as="geometry">
            <mxPoint as="offset" />
          </mxGeometry>
        </mxCell>
        <mxCell id="mpgL-DApy9O3jro9v3ed-90" style="edgeStyle=orthogonalEdgeStyle;rounded=0;orthogonalLoop=1;jettySize=auto;html=1;entryX=0;entryY=0.5;entryDx=0;entryDy=0;" edge="1" parent="1" source="mpgL-DApy9O3jro9v3ed-84" target="mpgL-DApy9O3jro9v3ed-88">
          <mxGeometry relative="1" as="geometry" />
        </mxCell>
        <mxCell id="mpgL-DApy9O3jro9v3ed-91" value="是" style="edgeLabel;html=1;align=center;verticalAlign=middle;resizable=0;points=[];" vertex="1" connectable="0" parent="mpgL-DApy9O3jro9v3ed-90">
          <mxGeometry x="-0.1954" relative="1" as="geometry">
            <mxPoint as="offset" />
          </mxGeometry>
        </mxCell>
        <mxCell id="mpgL-DApy9O3jro9v3ed-84" value="是否大于或等于最大设置值" style="rhombus;whiteSpace=wrap;html=1;" vertex="1" parent="1">
          <mxGeometry x="490" y="890" width="80" height="80" as="geometry" />
        </mxCell>
        <mxCell id="mpgL-DApy9O3jro9v3ed-88" value="cpc修改为“设置的最大cpc值”" style="rounded=0;whiteSpace=wrap;html=1;" vertex="1" parent="1">
          <mxGeometry x="630" y="900" width="120" height="60" as="geometry" />
        </mxCell>
        <mxCell id="mpgL-DApy9O3jro9v3ed-92" style="edgeStyle=orthogonalEdgeStyle;rounded=0;orthogonalLoop=1;jettySize=auto;html=1;entryX=1;entryY=0.5;entryDx=0;entryDy=0;" edge="1" parent="1" source="mpgL-DApy9O3jro9v3ed-88" target="mpgL-DApy9O3jro9v3ed-78">
          <mxGeometry relative="1" as="geometry">
            <mxPoint x="410" y="1120" as="targetPoint" />
            <Array as="points">
              <mxPoint x="690" y="1120" />
            </Array>
          </mxGeometry>
        </mxCell>
      </root>
    </mxGraphModel>
  </diagram>
</mxfile>
